<svg xmlns="http://www.w3.org/2000/svg" xmlns:xlink="http://www.w3.org/1999/xlink" version="1.1" x="0px" y="0px" viewBox="0 0 100 125" style="enable-background:new 0 0 100 100;" xml:space="preserve">
<path d="M24.8,36.2l-1.4,1.4c-0.1,0.1-0.1,0.1-0.1,0.2c-0.3,0.5-0.1,1.1,0.3,1.4v0c0.9,0.6,1.7,0.9,2.4,0.9h2c0.4,0,0.7,0,1-0.1  L25.1,36C25,36,24.9,36.1,24.8,36.2z"/>
<path d="M36,31.5v-2c0-0.9-0.2-1.4-0.6-2.2l-8.9-15.8c-0.4-0.8-1.2-1.5-1.9-2c-3.3-2.2-7.2-2.1-9.7,1.1l-5.7,7.3  C8.4,18.8,8,19.9,8,21v1c0,0.6,0.1,1.1,0.6,2c0.2,0.4,1.2,1.2,1.9,0.5c0.3-0.3,0.7-0.7,1.3-1.3c0.3-0.3,0.4-0.7,0.2-1.1  c0,0,0-0.1,0-0.1v-1c0-0.2,0.1-0.4,0.2-0.6l5.7-7.3c1-1.3,2.9-1.5,4.2-0.5c0.3,0.2,0.6,0.5,0.8,0.9l8.6,15.2l4.3,4.3  C35.9,32.5,36,32,36,31.5z"/>
<path d="M14.5,24.9c-0.4-0.4-1-0.4-1.4,0l-1.4,1.4c-0.4,0.4-0.4,1,0,1.4l8.1,8.1c0.4,0.4,1,0.4,1.4,0l1.4-1.4c0.4-0.4,0.4-1,0-1.4  L14.5,24.9z"/>
<path d="M75.4,86.4c0,0,0-0.1,0-0.1C74.1,83.8,73,82,72,81c-1.1-1.2-3.2-2.6-6.2-4.2c-0.5-0.3-1.1-0.1-1.4,0.4c0,0,0,0.1-0.1,0.1  l-0.7,1.8c-0.2,0.5,0,1,0.5,1.3c2.2,1.1,3.7,2.1,4.6,2.9c0.9,0.9,1.9,2.4,3,4.6v0c0.2,0.5,0.8,0.7,1.2,0.5l1.9-0.7  C75.3,87.5,75.6,86.9,75.4,86.4z"/>
<path d="M90.5,75.5c-0.5-0.8-1.2-1.5-2-1.9l-15.8-8.9c-0.8-0.4-1.3-0.6-2.2-0.6h-2c-0.5,0-1,0.1-1.5,0.2l4.3,4.3l15.2,8.6  c0.3,0.2,0.6,0.5,0.9,0.8c1,1.3,0.8,3.2-0.5,4.2l-7.3,5.7C79.4,87.9,79.2,88,79,88h-1c0,0-0.1,0-0.1,0c-0.4-0.1-0.8,0-1.1,0.2  c-0.6,0.6-1.1,1.1-1.3,1.3c-0.6,0.6,0.1,1.6,0.5,1.9c0.9,0.5,1.4,0.6,2,0.6h1c1.1,0,2.2-0.4,3.1-1.1l7.3-5.7  C92.6,82.7,92.7,78.8,90.5,75.5z"/>
<path d="M60,72v2c0,0.7,0.3,1.5,0.9,2.4h0c0.3,0.5,0.9,0.6,1.4,0.3c0.1,0,0.1-0.1,0.2-0.1l1.4-1.4c0.1-0.1,0.2-0.2,0.2-0.3L60.1,71  C60,71.3,60,71.6,60,72z"/>
<rect x="45.2" y="25.1" transform="matrix(0.7071 -0.7071 0.7071 0.7071 -22.7107 49.1716)" width="5.7" height="53.7"/>
<!-- <text x="0" y="115" fill="#000000" font-size="5px" font-weight="bold" font-family="'Helvetica Neue', Helvetica, Arial-Unicode, Arial, Sans-serif">Created by Bruno Castro</text>
<text x="0" y="120" fill="#000000" font-size="5px" font-weight="bold" font-family="'Helvetica Neue', Helvetica, Arial-Unicode, Arial, Sans-serif">from the Noun Project</text> -->
</svg>